<svg width="911" height="191" viewBox="0 0 911 191" fill="none" xmlns="http://www.w3.org/2000/svg">
<path d="M108.386 5.29182C105.998 5.93666 104.865 6.73835 102.617 9.28286C100.194 12.0539 99.3055 14.6856 99.4972 18.4675C99.6541 21.6743 100.578 23.9748 102.721 26.5019C103.384 27.2687 104.307 28.1924 104.778 28.5409C105.737 29.2381 107.723 30.2315 108.176 30.2315C108.333 30.2315 108.508 30.3012 108.56 30.3883C108.734 30.6672 95.6108 75.8758 94.9833 77.2003C94.1468 78.9431 93.4497 79.8145 92.526 80.2677C91.8114 80.5988 91.6546 80.6162 91.0272 80.4419C90.0686 80.1457 88.8661 78.9083 87.803 77.1132C87.3324 76.294 81.8251 69.0091 75.5684 60.9224L64.2053 46.1956L65.007 45.516C68.6494 42.3963 70.4968 38.7713 70.4968 34.7628C70.4968 31.7652 69.6777 29.4821 67.7257 27.0596C65.4252 24.2013 63.5778 22.8768 60.9462 22.1971C58.6283 21.6046 56.3626 21.8834 53.9401 23.0511C52.9293 23.5391 52.3193 24.0096 51.169 25.1773C48.7988 27.5998 47.5265 29.6389 46.9514 31.9743C46.6551 33.2117 46.6551 36.3139 46.9514 37.5513C47.2825 38.8933 48.3631 41.1589 49.2519 42.3615C51.2736 45.1151 53.609 46.7882 56.2929 47.433C56.9726 47.5899 57.5303 47.7293 57.5477 47.7468C57.6 47.7816 54.1667 81.9756 54.0098 82.9516C53.8007 84.2413 53.0687 86.2978 52.5458 87.0123C51.2387 88.8249 49.4436 88.7029 46.7074 86.6115C46.0451 86.1061 39.9976 82.0976 33.2877 77.7231C26.5779 73.3487 20.9835 69.6539 20.8615 69.5319C20.6698 69.3576 20.7221 69.1659 21.2449 68.434C23.7197 65.0006 24.2948 59.7547 22.6217 55.7811C21.1752 52.3129 17.8464 49.263 14.4654 48.2522C13.1931 47.8862 10.6834 47.8339 9.32405 48.165C8.80121 48.287 7.70324 48.7053 6.88411 49.0887C5.64672 49.6987 5.1413 50.0647 3.74705 51.4764C2.45737 52.7661 1.9171 53.4806 1.35939 54.5437C0.174281 56.8268 0 57.6459 0 60.7307C0 63.0835 0.0522844 63.6064 0.418275 64.7392C2.12623 70.2116 6.58784 73.6798 11.9383 73.6798C13.8379 73.6972 14.9185 73.4184 16.609 72.4947C17.219 72.1461 17.7418 71.8847 17.7767 71.9196C17.8638 72.0416 22.5694 80.9125 24.4517 84.5201C30.1507 95.4824 32.8346 103.186 34.2463 112.579C34.3509 113.242 34.4729 114.009 34.5251 114.287L34.6297 114.758H111.279H187.91L188.032 113.852C188.241 112.196 189.357 106.88 189.984 104.528C191.326 99.4037 193.487 93.879 196.502 87.7618C198.297 84.1193 204.484 72.2507 204.711 71.9893C204.781 71.9021 205.077 72.0067 205.356 72.2159C206.75 73.1918 209.608 73.9238 211.386 73.7321C214.418 73.3835 216.649 72.3204 218.81 70.1419C219.629 69.3228 220.553 68.2074 220.884 67.6671C224.318 61.8113 223.132 55.0317 217.887 50.6224C216.545 49.4896 214.697 48.5136 213.233 48.165C211.996 47.8688 209.748 47.8688 208.528 48.165C206.314 48.7053 203.683 50.4481 201.992 52.5046C199.831 55.1189 198.994 57.6982 199.169 61.2884C199.291 64.1292 200.075 66.5343 201.504 68.5385C201.94 69.1659 202.027 69.3925 201.853 69.5494C201.748 69.6539 196.101 73.3487 189.339 77.758C182.577 82.1847 176.495 86.2106 175.832 86.7161C174.281 87.8837 173.445 88.2672 172.347 88.2672C170.709 88.2672 169.611 87.0646 168.966 84.5375C168.722 83.5441 168.129 78.0717 166.962 65.5583C166.055 55.8857 165.306 47.9036 165.306 47.8165C165.306 47.7293 165.428 47.6596 165.55 47.6596C166.212 47.6596 168.67 46.7185 169.611 46.1085C171.667 44.784 173.898 42.0826 174.822 39.7821C176.024 36.8542 176.076 32.898 174.944 30.0572C174.264 28.3492 173.427 27.1816 171.58 25.3342C169.715 23.4694 168.304 22.6328 166.09 22.11C163.737 21.5697 160.879 22.0751 158.561 23.4694C157.341 24.2013 155.041 26.5019 154.065 27.9658C151.503 31.8523 151.52 37.7779 154.134 41.7689C154.988 43.0934 156.522 44.7491 157.725 45.6902L158.422 46.2131L157.881 46.8928C152.862 53.254 135.364 76.1895 134.72 77.27C133.744 78.8908 132.314 80.3199 131.495 80.4768C130.153 80.7556 128.742 79.4311 127.731 76.9389C127.522 76.416 126.406 72.7561 125.256 68.8348C124.106 64.896 121.108 54.718 118.598 46.1782C116.106 37.6559 114.102 30.58 114.137 30.458C114.189 30.336 114.346 30.2315 114.485 30.2315C114.607 30.2315 115.374 29.9178 116.159 29.5169C117.901 28.6455 120.289 26.3799 121.282 24.6545C123.304 21.1863 123.705 16.5155 122.311 12.9776C121.021 9.70113 117.727 6.40722 114.782 5.4661C113.109 4.92582 110.059 4.83868 108.386 5.29182Z" fill="white"/>
<path d="M34.5947 135.497V147H111.191H187.788L187.823 135.497L187.875 123.995H111.244H34.5947V135.497Z" fill="white"/>
<path d="M285.24 189.72C281.027 189.72 277.053 188.627 273.32 186.44L274.12 173.8C275.88 174.333 277.64 174.6 279.4 174.6C282.067 174.6 284.227 173.987 285.88 172.76C287.587 171.533 288.44 169.667 288.44 167.16C288.44 165.187 287.613 163.64 285.96 162.52C284.36 161.4 282.627 160.76 280.76 160.6H278.12L286.52 145.08H300.68L296.84 157.48C296.893 157.533 297.347 157.8 298.2 158.28C299.107 158.813 299.64 159.107 299.8 159.16C299.96 159.267 300.413 159.587 301.16 160.12C301.96 160.653 302.44 161.027 302.6 161.24C302.813 161.453 303.213 161.853 303.8 162.44C304.44 163.027 304.84 163.533 305 163.96C305.213 164.387 305.507 164.947 305.88 165.64C306.307 166.387 306.573 167.107 306.68 167.8C306.84 168.493 306.973 169.293 307.08 170.2C307.24 171.107 307.32 172.067 307.32 173.08C307.32 176.92 306.147 180.147 303.8 182.76C301.507 185.373 298.76 187.187 295.56 188.2C292.36 189.213 288.92 189.72 285.24 189.72ZM292.28 148.68C288.173 148.68 284.333 148.307 280.76 147.56C277.24 146.867 274.28 145.933 271.88 144.76C269.48 143.587 267.507 142.467 265.96 141.4C264.467 140.333 263.213 139.267 262.2 138.2L264.2 118.76C266.387 121.693 269.32 124.253 273 126.44C276.68 128.573 280.653 129.64 284.92 129.64C289.187 129.64 292.253 129.187 294.12 128.28C296.04 127.373 297 125.72 297 123.32C297 120.76 295.907 118.573 293.72 116.76C291.587 114.947 287.88 112.76 282.6 110.2C280.68 109.24 279.053 108.387 277.72 107.64C276.387 106.84 274.6 105.56 272.36 103.8C270.173 101.987 268.387 100.12 267 98.2C265.613 96.2267 264.387 93.72 263.32 90.68C262.253 87.5867 261.72 84.28 261.72 80.76C261.72 61.72 272.467 52.2 293.96 52.2C297.373 52.2 300.573 52.5733 303.56 53.32C306.6 54.0133 308.973 54.7867 310.68 55.64C312.387 56.4933 313.933 57.5067 315.32 58.68C316.76 59.8 317.667 60.6 318.04 61.08C318.413 61.5067 318.68 61.8533 318.84 62.12L314.84 77.56C312.76 75.1067 310.147 73.2933 307 72.12C303.907 70.8933 300.947 70.28 298.12 70.28C291.293 70.28 287.88 72.4133 287.88 76.68C287.88 77.8 288.093 78.8133 288.52 79.72C288.947 80.6267 289.64 81.4533 290.6 82.2C291.56 82.9467 292.44 83.5867 293.24 84.12C294.093 84.6533 295.24 85.32 296.68 86.12C298.173 86.8667 299.293 87.48 300.04 87.96C307.827 91.2667 313.533 95.1867 317.16 99.72C320.84 104.253 322.68 109.773 322.68 116.28C322.68 126.84 320.067 134.893 314.84 140.44C309.667 145.933 302.147 148.68 292.28 148.68ZM366.597 139.88L365.797 140.76C365.264 141.4 364.437 142.147 363.317 143C362.25 143.853 360.997 144.707 359.557 145.56C358.17 146.413 356.464 147.133 354.437 147.72C352.41 148.36 350.33 148.68 348.197 148.68C333.797 148.68 326.597 141.56 326.597 127.32C326.597 124.547 327.104 122.013 328.117 119.72C329.13 117.373 330.437 115.4 332.037 113.8C333.637 112.2 335.557 110.787 337.797 109.56C340.037 108.28 342.277 107.293 344.517 106.6C346.81 105.853 349.21 105.24 351.717 104.76C354.224 104.28 356.464 103.96 358.437 103.8C360.41 103.64 362.304 103.56 364.117 103.56V102.12C364.117 98.8667 363.237 96.5733 361.477 95.24C359.77 93.9067 356.997 93.24 353.157 93.24C349.85 93.24 346.41 93.64 342.837 94.44C339.264 95.1867 336.464 96.0933 334.437 97.16L329.317 86.28C332.944 83.9333 337.664 81.88 343.477 80.12C349.29 78.3067 355.21 77.4 361.237 77.4C366.57 77.4 370.97 77.9333 374.437 79C377.904 80.0133 380.704 81.7733 382.837 84.28C385.024 86.7333 386.57 89.88 387.477 93.72C388.384 97.5067 388.837 102.333 388.837 108.2V140.76L391.077 147H369.157L366.597 139.88ZM360.277 134.6C360.97 134.6 361.61 134.467 362.197 134.2C362.837 133.88 363.317 133.587 363.637 133.32C363.957 133 364.117 132.84 364.117 132.84V113.64C360.864 113.64 358.277 114.547 356.357 116.36C354.437 118.12 353.477 120.867 353.477 124.6C353.477 131.267 355.744 134.6 360.277 134.6ZM423.868 147H397.948V56.52L393.148 53.64V46.2L418.828 42.2H424.028V89.32L424.988 88.12C425.628 87.2667 426.561 86.2533 427.788 85.08C429.068 83.9067 430.481 82.76 432.028 81.64C433.575 80.4667 435.415 79.48 437.548 78.68C439.735 77.8267 441.868 77.4 443.948 77.4C451.255 77.4 456.401 79.4 459.388 83.4C462.428 87.4 463.948 94.0933 463.948 103.48C463.948 103.8 463.948 104.28 463.948 104.92C463.895 105.56 463.868 106.067 463.868 106.44V147H437.468V104.12C437.628 99.1067 435.495 96.6 431.068 96.6C430.641 96.6 430.215 96.6267 429.788 96.68C429.415 96.7333 429.015 96.8667 428.588 97.08C428.161 97.2933 427.815 97.4533 427.548 97.56C427.335 97.6667 426.988 97.88 426.508 98.2C426.081 98.52 425.788 98.7333 425.628 98.84C425.521 98.9467 425.201 99.2133 424.668 99.64C424.188 100.067 423.921 100.307 423.868 100.36V147ZM519.943 147V74.44H501.223V53.24H565.703V74.44H546.983V147H519.943ZM605.837 139.08C608.184 139.08 609.971 138.12 611.198 136.2C612.478 134.227 613.118 131.533 613.118 128.12V102.84C613.118 92.44 610.664 87.24 605.758 87.24C603.464 87.24 601.678 88.1733 600.398 90.04C599.117 91.9067 598.477 94.5467 598.477 97.96V123.96C598.477 134.04 600.931 139.08 605.837 139.08ZM605.197 148.68C592.984 148.68 584.051 145.907 578.397 140.36C572.744 134.813 569.917 125.96 569.917 113.8C569.917 101.747 572.771 92.68 578.478 86.6C584.184 80.4667 593.464 77.4 606.318 77.4C618.851 77.4 627.891 80.3333 633.438 86.2C639.038 92.0133 641.838 100.84 641.838 112.68C641.838 124.947 638.878 134.013 632.958 139.88C627.091 145.747 617.837 148.68 605.197 148.68ZM689.672 136.36C689.352 137.107 688.686 138.093 687.673 139.32C686.712 140.547 685.432 141.907 683.833 143.4C682.232 144.84 680.259 146.067 677.913 147.08C675.566 148.147 673.193 148.68 670.792 148.68C663.272 148.68 657.886 146.44 654.632 141.96C651.432 137.48 649.833 130.013 649.833 119.56V91.08L647.032 88.2V79H676.073V124.6C676.019 127 676.419 128.787 677.273 129.96C678.126 131.08 679.673 131.64 681.912 131.64C682.233 131.64 682.526 131.64 682.793 131.64C683.059 131.587 683.326 131.533 683.592 131.48C683.859 131.373 684.072 131.293 684.232 131.24C684.446 131.187 684.686 131.107 684.953 131C685.219 130.84 685.432 130.707 685.592 130.6C685.752 130.493 685.966 130.36 686.232 130.2C686.499 129.987 686.686 129.827 686.793 129.72C686.953 129.613 687.166 129.453 687.433 129.24C687.752 128.973 687.992 128.787 688.152 128.68V91.08L683.833 88.2V79H714.312V147H692.152L689.672 136.36ZM751.158 147H725.318V95.24L720.518 92.28V83.24L737.718 79H744.198L746.518 98.04C748.705 84.9733 755.718 78.44 767.558 78.44C768.891 78.44 770.278 78.68 771.718 79.16L768.998 107.64C767.878 106.627 765.425 106.12 761.638 106.12C756.198 106.12 752.705 107.56 751.158 110.44V147ZM799.093 148.68C794.079 148.68 789.012 147.853 783.892 146.2C778.772 144.493 775.492 142.84 774.052 141.24L776.132 128.36C777.946 130.12 780.959 131.64 785.172 132.92C789.439 134.2 793.786 134.84 798.212 134.84C801.412 134.84 803.599 134.44 804.773 133.64C805.999 132.84 806.612 131.72 806.612 130.28C806.612 128.893 805.546 127.667 803.412 126.6C801.279 125.48 797.812 124.2 793.012 122.76C780.586 119.027 774.372 111.293 774.372 99.56C774.372 94.76 775.759 90.6533 778.532 87.24C781.306 83.7733 784.853 81.2667 789.173 79.72C793.492 78.1733 798.319 77.4 803.652 77.4C812.772 77.4 819.492 79.08 823.813 82.44C824.773 83.3467 825.252 83.8 825.252 83.8L821.733 95.24C818.213 91.7733 813.359 90.04 807.173 90.04C802.106 90.04 799.572 91.5333 799.572 94.52C799.572 95.3733 799.759 96.0933 800.133 96.68C800.506 97.2133 801.119 97.6933 801.972 98.12C802.879 98.4933 803.759 98.8133 804.613 99.08C805.466 99.2933 806.666 99.6133 808.213 100.04C809.759 100.413 811.093 100.76 812.213 101.08C818.452 103.16 822.986 106.093 825.812 109.88C828.639 113.667 830.052 118.387 830.052 124.04C830.052 140.467 819.732 148.68 799.093 148.68Z" fill="white"/>
</svg>
